# xmcd
#
# Track frame offsets: 
#        150
#        17734
#        32126
#        44947
#        56924
#        72345
#        91709
#        106047
#        118415
#        134055
#        149076
#        163384
#        178675
#        192854
#        206466
#        221792
#        235279
#        254973
#        269537
#        286826
#
# Disc length: 3996 seconds
#
# Revision: 1
# Processed by: cddbd v1.5.2PL0 Copyright (c) Steve Scherf et al.
# Submitted via: ExactAudioCopy v1.0b4
#
DISCID=510f9a14
DTITLE=Don Williams - New Moves - Traces
DYEAR=2011
DGENRE=Country
TTITLE0=Heartbreat In The Darkness
TTITLE1=I'll Never Be In Love Again
TTITLE2=Shot Full Of Love
TTITLE3=We Got Love
TTITLE4=Send Her Roses
TTITLE5=Senorita
TTITLE6=The Light In Your Eyes
TTITLE7=It's About Time
TTITLE8=Then It's Love
TTITLE9=We've Got A Good Fire Goin'
TTITLE10=Desperately
TTITLE11=Easy Touch
TTITLE12=Come Frome The Heart
TTITLE13=Running Out Of Reasons To Run
TTITLE14=I Wouldn't Be A Man
TTITLE15=Looking Back
TTITLE16='til I Can't Take It Anymore
TTITLE17=Another Place, Another Time
TTITLE18=Old Coyote Town
TTITLE19=You Love Me Through It All
EXTD=
EXTT0=
EXTT1=
EXTT2=
EXTT3=
EXTT4=
EXTT5=
EXTT6=
EXTT7=
EXTT8=
EXTT9=
EXTT10=
EXTT11=
EXTT12=
EXTT13=
EXTT14=
EXTT15=
EXTT16=
EXTT17=
EXTT18=
EXTT19=
PLAYORDER=
